<svg version="1.1" id="Layer_1" xmlns="http://www.w3.org/2000/svg" xmlns:xlink="http://www.w3.org/1999/xlink" x="0px" y="0px"
	 width="100%" viewBox="0 0 478 146" enable-background="new 0 0 478 146" xml:space="preserve">
<path fill="#070707" opacity="1.000000" stroke="none" 
	d="
M406.692505,1.389483 
	C429.986847,1.000000 452.973846,1.038551 475.960297,0.942631 
	C478.359192,0.932621 479.076752,1.356822 479.071289,3.957243 
	C478.973267,50.597004 478.959381,97.237144 479.093323,143.876724 
	C479.102051,146.917542 478.138580,147.058075 475.626678,147.057068 
	C318.549957,146.993622 161.473190,146.985214 4.396531,147.102051 
	C1.128104,147.104477 0.926016,146.100204 0.939625,143.400162 
	C1.047927,121.912994 1.000000,100.425034 1.000000,78.468658 
	C3.693934,75.676453 6.983290,76.272415 10.088996,76.269585 
	C53.554573,76.229912 97.020195,76.243790 140.485809,76.243576 
	C224.585938,76.243172 308.686066,76.262238 392.786194,76.224884 
	C406.735474,76.218689 405.162323,77.529236 405.223328,64.039429 
	C405.305450,45.887489 405.226288,27.734884 405.261353,9.582638 
	C405.266449,6.943155 404.938049,4.224358 406.692505,1.389483 
z"/>
<path fill="#FCFCFC" opacity="1.000000" stroke="none" 
	d="
M406.531342,1.000000 
	C406.995605,24.811934 406.872772,48.624962 407.093140,72.434814 
	C407.134064,76.855042 406.166931,78.125542 401.522949,78.120476 
	C270.191376,77.977257 138.859604,78.008339 7.527880,77.975212 
	C5.591137,77.974724 3.513764,78.611465 1.360737,77.627106 
	C1.000000,53.855236 1.085181,29.709850 0.908180,5.566383 
	C0.881625,1.944209 1.520303,0.891065 5.426238,0.894973 
	C132.644043,1.022248 259.861969,1.000000 387.079895,1.000000 
	C393.407501,1.000000 399.735077,1.000000 406.531342,1.000000 
z"/>
<path fill="#E8E8E8" opacity="1.000000" stroke="none" 
	d="
M310.109558,124.916206 
	C307.010010,124.531631 305.878845,125.246834 305.861694,128.293121 
	C305.810486,137.390274 305.652039,137.389374 314.928040,137.389404 
	C320.588409,137.389435 326.248749,137.393112 331.909119,137.387375 
	C333.559784,137.385696 335.206299,137.018723 335.288055,139.694595 
	C335.370300,142.385971 333.787781,142.089676 332.091766,142.086243 
	C322.935364,142.067642 313.776337,141.956772 304.623779,142.145737 
	C301.620575,142.207733 301.077942,141.077286 301.111572,138.389450 
	C301.244873,127.736320 301.274200,117.078743 301.097290,106.426888 
	C301.047729,103.442635 302.121796,102.854271 304.830414,102.898949 
	C313.817963,103.047203 322.809662,102.926132 331.799286,102.984459 
	C333.228638,102.993744 335.214081,102.104095 335.283234,105.034927 
	C335.351196,107.916985 333.669495,107.711548 331.752594,107.701591 
	C324.427643,107.663513 317.098022,107.832359 309.779236,107.616203 
	C306.761627,107.527077 305.836945,108.291252 305.860870,111.438980 
	C305.926941,120.120995 305.757690,120.122246 314.312042,120.122330 
	C316.809265,120.122360 319.307068,120.156380 321.803467,120.111641 
	C323.595886,120.079514 325.046570,120.094421 325.002319,122.640556 
	C324.954987,125.361679 323.176514,124.895927 321.583557,124.907433 
	C317.921173,124.933884 314.258453,124.916039 310.109558,124.916206 
z"/>
<path fill="#F1F1F1" opacity="1.000000" stroke="none" 
	d="
M362.653900,113.354660 
	C359.963043,112.296059 361.135559,114.361092 361.128204,114.977837 
	C361.034973,122.798889 361.097534,130.621658 361.041168,138.443420 
	C361.029663,140.042831 361.931427,142.257355 358.695831,142.111267 
	C355.881165,141.984207 356.597717,140.079193 356.591797,138.593033 
	C356.549286,127.941742 356.542755,117.290062 356.605347,106.638969 
	C356.612396,105.436684 355.815399,103.734558 357.444153,103.099136 
	C359.268555,102.387390 360.471008,103.641098 361.611145,104.997551 
	C366.855591,111.237030 372.164459,117.422455 377.460815,123.618202 
	C380.016357,126.607758 382.595215,129.577347 385.942841,133.459763 
	C385.942841,123.789192 385.903259,115.227768 385.979431,106.667381 
	C385.993103,105.133278 384.935760,102.859093 388.222839,102.916664 
	C391.400787,102.972336 390.512115,105.153572 390.521057,106.758011 
	C390.578674,117.076279 390.600281,127.395561 390.493134,137.713043 
	C390.478271,139.144135 391.661743,141.241089 389.314575,141.977737 
	C387.094391,142.674561 386.061127,140.817398 384.900452,139.457748 
	C377.555725,130.853775 370.229858,122.233696 362.653900,113.354660 
z"/>
<path fill="#E9E9E9" opacity="1.000000" stroke="none" 
	d="
M153.996902,142.074585 
	C148.337158,142.074341 143.173264,141.961044 138.018082,142.123978 
	C135.622955,142.199692 134.911255,141.452881 134.937286,139.048019 
	C135.056152,128.062790 135.091202,117.073959 134.919922,106.090111 
	C134.875534,103.244232 136.000397,102.882065 138.406021,102.911980 
	C147.560043,103.025833 156.716324,102.954193 165.871750,102.961349 
	C167.465942,102.962601 169.174164,102.487312 169.115326,105.260254 
	C169.059845,107.875298 167.540909,107.690338 165.826492,107.686943 
	C158.502182,107.672432 151.174026,107.818886 143.855270,107.616821 
	C140.735657,107.530685 139.557693,108.238373 139.610626,111.661507 
	C139.741486,120.123146 139.550262,120.126022 147.818268,120.126160 
	C150.481674,120.126205 153.146103,120.171959 155.808090,120.110748 
	C157.504837,120.071739 158.709030,120.321426 158.730865,122.463196 
	C158.751938,124.527336 157.728226,124.962654 155.940918,124.933418 
	C151.780472,124.865356 147.602829,125.131310 143.461563,124.841682 
	C140.291901,124.620003 139.607635,125.736206 139.625336,128.743240 
	C139.676254,137.394073 139.531693,137.394928 148.187607,137.394958 
	C153.680862,137.394974 159.177048,137.295303 164.665573,137.456284 
	C166.292679,137.503983 168.952164,136.099533 169.058762,139.650177 
	C169.180450,143.703674 166.136948,141.850403 164.476990,141.991440 
	C161.171600,142.272263 157.825562,142.074585 153.996902,142.074585 
z"/>
<path fill="#EEEEEE" opacity="1.000000" stroke="none" 
	d="
M260.108032,103.844231 
	C266.172516,102.050240 271.380829,103.332008 276.152740,106.470734 
	C277.128052,107.112228 279.841827,107.522110 277.894379,109.979073 
	C276.428345,111.828651 275.357391,111.479469 273.456390,110.237114 
	C267.927307,106.623650 262.131256,106.719261 256.650360,110.499084 
	C251.552750,114.014549 249.429657,120.259499 250.981079,126.363495 
	C252.978973,134.223984 261.167908,138.932755 269.269135,136.879395 
	C274.412323,135.575806 276.612885,131.379700 275.099213,126.255623 
	C274.587158,124.522293 273.449219,124.945778 272.406616,124.921646 
	C269.745331,124.860069 267.080292,124.847519 264.419495,124.918106 
	C262.857727,124.959534 261.929413,124.656433 261.927032,122.776184 
	C261.924713,120.940536 262.407227,120.277641 264.418457,120.075615 
	C279.880219,118.522575 279.874817,118.468704 279.874817,133.866287 
	C279.874817,135.197632 279.885437,136.529099 279.872925,137.860321 
	C279.824707,142.987106 279.542450,143.205124 274.964142,140.465668 
	C273.737457,139.731689 273.199280,140.526459 272.374207,140.772629 
	C260.932739,144.186783 250.481354,139.309235 246.901535,128.872650 
	C243.286850,118.334457 248.523163,108.142181 260.108032,103.844231 
z"/>
<path fill="#F0F0F0" opacity="1.000000" stroke="none" 
	d="
M439.410461,130.266479 
	C436.106232,119.280502 439.371338,110.170708 447.990997,105.437698 
	C455.926819,101.080200 465.746002,102.622665 471.672211,109.416000 
	C476.919739,115.431313 478.400940,122.356522 475.306763,129.849091 
	C472.237579,137.281113 466.481842,141.490021 458.469818,141.933884 
	C449.786499,142.414948 443.521545,138.338120 439.410461,130.266479 
z"/>
<path fill="#F1F1F1" opacity="1.000000" stroke="none" 
	d="
M219.736526,116.997330 
	C219.737076,112.846092 219.812668,109.186989 219.707077,105.533112 
	C219.652908,103.658997 220.188812,102.891022 222.205490,102.919952 
	C224.233658,102.949043 224.214767,104.088745 224.202713,105.500725 
	C224.141693,112.646965 224.377258,119.808533 223.983597,126.935707 
	C223.553452,134.722748 216.915573,141.136963 209.137863,141.954422 
	C201.115952,142.797546 193.061279,137.768890 191.148453,130.084686 
	C189.077621,121.765778 190.529388,113.198624 190.219437,104.747322 
	C190.142960,102.661842 191.746902,103.058418 193.023895,102.974548 
	C195.102707,102.838028 194.928284,104.274864 194.927872,105.617188 
	C194.925980,111.767502 194.870926,117.918488 194.943466,124.067955 
	C195.036087,131.920258 199.712875,137.086288 206.805817,137.315857 
	C214.065186,137.550812 219.270996,132.407288 219.705322,124.471794 
	C219.832306,122.151451 219.732422,119.818687 219.736526,116.997330 
z"/>
<path fill="#E7E7E7" opacity="1.000000" stroke="none" 
	d="
M416.713318,119.004013 
	C416.713226,125.828094 416.717743,132.153229 416.710052,138.478363 
	C416.707886,140.264053 417.183441,142.171890 414.163422,142.143967 
	C411.302795,142.117523 412.006531,140.248840 412.001831,138.754303 
	C411.967865,127.935104 411.965607,117.115692 412.004639,106.296524 
	C412.009979,104.819885 411.257874,102.925369 414.141449,102.886292 
	C417.145782,102.845566 416.712769,104.715202 416.712952,106.520607 
	C416.713348,110.515427 416.713226,114.510239 416.713318,119.004013 
z"/>
<path fill="#EEEEEE" opacity="1.000000" stroke="none" 
	d="
M321.073578,97.926254 
	C319.404999,96.691368 318.269135,94.920967 316.391083,97.244873 
	C315.024139,98.936317 314.178528,97.259651 313.256195,96.488968 
	C311.962006,95.407585 312.810944,94.638435 313.553955,93.684952 
	C317.381500,88.773323 317.971344,88.829193 321.979797,92.497612 
	C324.643341,94.935196 324.164001,96.433563 321.073578,97.926254 
z"/>
<path fill="#101010" opacity="1.000000" stroke="none" 
	d="
M176.143311,55.466988 
	C167.006912,58.389893 157.967758,56.439472 149.045670,56.957916 
	C147.194458,57.065487 147.609100,55.480595 147.606827,54.415791 
	C147.582626,43.084301 147.635376,31.752434 147.554153,20.421480 
	C147.539383,18.361078 148.379135,17.936317 150.208878,17.957678 
	C157.206787,18.039375 164.208878,17.889301 171.203735,18.058956 
	C175.364548,18.159874 178.504593,20.335417 180.258743,24.104975 
	C182.090759,28.041861 181.642151,31.888456 178.977783,35.372444 
	C178.050232,36.585327 176.800919,37.107090 178.485352,39.207966 
	C183.141891,45.015663 182.252594,50.196007 176.143311,55.466988 
z"/>
<path fill="#141414" opacity="1.000000" stroke="none" 
	d="
M235.251541,57.016502 
	C229.267563,53.221992 226.041687,47.242817 221.483810,42.490311 
	C219.211838,40.121296 210.474045,38.149723 207.734344,39.570904 
	C206.347015,40.290569 206.754684,41.535511 206.739655,42.610237 
	C206.686066,46.438263 206.700562,50.267590 206.724854,54.096195 
	C206.734818,55.669189 206.809616,57.125793 204.510071,57.037071 
	C202.263123,56.950375 202.886566,55.330925 202.882629,54.160782 
	C202.845078,43.007542 202.918152,31.853571 202.811890,20.701216 
	C202.790497,18.455059 203.542816,17.893335 205.671738,17.932865 
	C212.161774,18.053368 218.656372,17.908775 225.147446,17.996853 
	C231.687027,18.085588 236.236526,22.135798 236.667526,28.059105 
	C237.073822,33.642693 233.178818,38.128994 226.921524,39.292324 
	C226.307266,39.406525 225.699326,39.554760 224.258179,39.867203 
	C228.697937,45.048996 232.708237,49.812733 236.819077,54.488041 
	C238.552505,56.459488 238.310547,57.235737 235.251541,57.016502 
z"/>
<path fill="#161616" opacity="1.000000" stroke="none" 
	d="
M51.704342,37.956009 
	C51.594524,35.902622 52.621197,35.741409 53.911755,35.594837 
	C68.979065,33.883591 68.977516,33.869934 68.977516,48.629768 
	C68.977516,49.961018 69.154037,51.322769 68.930710,52.615433 
	C68.678482,54.075382 70.123482,56.143650 67.871338,56.907219 
	C66.402962,57.405064 65.261589,57.054905 64.665138,54.999847 
	C64.377319,54.008171 62.545868,55.433418 61.444592,55.813862 
	C50.319794,59.657009 39.008438,53.870308 35.835640,42.676868 
	C32.755852,31.811558 39.341232,20.984407 50.617397,18.460892 
	C56.128181,17.227623 61.185345,18.518496 65.747139,21.680344 
	C66.703186,22.342995 68.939987,22.837891 67.192459,24.968433 
	C65.745018,26.733112 64.740120,25.522182 63.452045,24.742130 
	C56.733295,20.673288 49.974770,21.012844 44.520214,25.587778 
	C39.380482,29.898653 37.582607,36.938236 40.022690,43.197842 
	C42.784729,50.283367 50.286983,54.361095 57.758476,52.837845 
	C63.997631,51.565830 66.276413,47.738327 65.085915,41.243340 
	C64.641296,38.817673 63.087837,39.635166 61.779369,39.439262 
	C58.445942,38.940174 54.892662,40.565361 51.704342,37.956009 
z"/>
<path fill="#141414" opacity="1.000000" stroke="none" 
	d="
M285.197235,37.000252 
	C285.197449,31.343786 285.310211,26.183483 285.148438,21.031799 
	C285.072388,18.609253 285.894440,17.902645 288.268280,17.931410 
	C297.582367,18.044270 306.898621,17.972864 316.214081,17.982088 
	C317.652008,17.983515 319.300659,17.562199 319.140503,20.062847 
	C318.981812,22.540953 317.230499,21.894285 315.892426,21.901903 
	C308.074341,21.946428 300.254303,22.013245 292.438477,21.873180 
	C289.929230,21.828217 289.066132,22.418232 289.003998,25.137772 
	C288.764343,35.626839 288.646179,35.624054 299.242157,35.624207 
	C301.404663,35.624237 303.567413,35.607513 305.729645,35.632221 
	C307.039551,35.647186 308.518494,35.422962 308.516968,37.491344 
	C308.515472,39.475605 307.172791,39.436531 305.783539,39.432919 
	C301.458527,39.421677 297.128937,39.549305 292.810150,39.385235 
	C290.197937,39.286007 289.046967,39.796402 288.995880,42.849293 
	C288.824371,53.101665 288.679413,53.099194 298.887878,53.099251 
	C304.543701,53.099285 310.199768,53.068954 315.855103,53.122040 
	C317.194122,53.134605 318.981110,52.475658 319.125397,54.940567 
	C319.300262,57.926853 317.116516,56.976974 315.714447,56.987274 
	C306.732178,57.053272 297.747223,56.916283 288.767548,57.082607 
	C285.947357,57.134846 285.022491,56.319435 285.136505,53.466866 
	C285.348938,48.152241 285.197296,42.823063 285.197235,37.000252 
z"/>
<path fill="#141414" opacity="1.000000" stroke="none" 
	d="
M123.158508,57.006847 
	C122.390251,56.698410 121.746452,56.453209 121.679512,56.098988 
	C120.356140,49.096603 115.513161,48.263756 109.611626,48.997883 
	C107.647438,49.242218 105.585182,49.297047 103.641273,48.983200 
	C99.351242,48.290554 96.737282,49.697891 95.679169,54.074692 
	C95.378868,55.316872 95.098785,57.099323 92.945282,57.048943 
	C91.353905,57.011715 90.285728,56.876919 91.130562,54.895382 
	C96.132965,43.162292 101.059036,31.395973 106.166924,19.709072 
	C107.312920,17.087025 108.989166,16.955534 110.232689,19.865822 
	C115.244202,31.594568 120.200348,43.347462 125.304535,55.035717 
	C126.382881,57.505062 124.754517,56.915058 123.158508,57.006847 
z"/>
<path fill="#0C0C0C" opacity="1.000000" stroke="none" 
	d="
M353.056702,53.118130 
	C359.215881,53.118187 364.883118,53.062122 370.547821,53.157448 
	C371.977936,53.181511 374.140686,52.216324 374.317139,54.992928 
	C374.507263,57.984715 372.210754,56.953056 370.834412,56.965145 
	C361.835693,57.044189 352.834045,56.904182 343.837616,57.067928 
	C341.155365,57.116753 340.514557,56.249378 340.545807,53.688457 
	C340.677979,42.857410 340.581787,32.023739 340.627991,21.191273 
	C340.633606,19.879272 339.896057,17.972940 342.466644,17.988226 
	C345.055359,18.003620 344.247284,19.935638 344.256042,21.224983 
	C344.315002,29.890711 344.584808,38.571354 344.169098,47.217484 
	C343.940521,51.971733 345.139069,54.067127 350.067963,53.139420 
	C350.872742,52.987949 351.730560,53.118130 353.056702,53.118130 
z"/>
<path fill="#131313" opacity="1.000000" stroke="none" 
	d="
M263.939819,40.996788 
	C263.939331,45.818256 263.925140,50.140751 263.946167,54.463074 
	C263.953033,55.874500 263.973297,57.044373 261.948853,57.057854 
	C259.859833,57.071770 260.010162,55.806419 260.010742,54.450573 
	C260.015472,43.145763 260.016296,31.840950 260.009735,20.536142 
	C260.008942,19.169619 259.879425,17.920298 261.961243,17.940920 
	C263.991577,17.961029 263.948456,19.146746 263.945312,20.548094 
	C263.930420,27.197947 263.939362,33.847855 263.939819,40.996788 
z"/>
<path fill="#090909" opacity="1.000000" stroke="none" 
	d="
M471.989502,120.450180 
	C472.071533,129.991318 467.267609,136.199982 459.412781,137.157196 
	C451.523071,138.118652 444.666138,133.511459 442.899323,126.061745 
	C441.039856,118.221359 445.705231,110.188744 453.295105,108.162796 
	C461.808228,105.890419 469.132111,110.548096 471.989502,120.450180 
z"/>
<path fill="#F4F4F4" opacity="1.000000" stroke="none" 
	d="
M177.394058,47.565979 
	C176.138031,51.598812 173.595840,53.195351 169.795227,53.143692 
	C164.642212,53.073650 159.484497,53.024014 154.334869,53.173935 
	C151.917145,53.244328 151.313736,52.380638 151.209183,50.028542 
	C150.735779,39.378868 150.652679,39.382233 161.348618,39.382797 
	C164.008728,39.382938 166.671677,39.307587 169.328354,39.403881 
	C174.912262,39.606277 176.769073,41.422050 177.394058,47.565979 
z"/>
<path fill="#F4F4F4" opacity="1.000000" stroke="none" 
	d="
M159.070190,21.895132 
	C163.204498,21.900616 166.853531,21.860353 170.500778,21.923683 
	C174.638321,21.995527 177.155701,24.344406 177.466660,28.253641 
	C177.784882,32.254059 175.369797,35.110928 171.413376,35.407433 
	C165.476349,35.852371 159.487366,35.602024 153.520508,35.651550 
	C152.167618,35.662781 151.290421,35.161388 151.291016,33.661423 
	C151.292328,30.344952 151.300247,27.028437 151.285995,23.712025 
	C151.278961,22.079098 152.353775,21.894356 153.609192,21.898703 
	C155.267487,21.904444 156.925827,21.896942 159.070190,21.895132 
z"/>
<path fill="#F7F7F7" opacity="1.000000" stroke="none" 
	d="
M206.705688,32.762848 
	C206.701828,21.914301 206.701828,21.910875 216.865784,21.916338 
	C220.024948,21.918037 223.194000,21.792006 226.340744,21.997200 
	C230.225800,22.250538 232.497772,24.721443 232.756271,28.390959 
	C233.004044,31.908175 230.958710,34.868805 227.451340,35.165543 
	C221.015411,35.710052 214.514069,35.534790 208.040115,35.529297 
	C206.799316,35.528244 206.721405,34.264450 206.705688,32.762848 
z"/>
<path fill="#F7F7F7" opacity="1.000000" stroke="none" 
	d="
M102.980835,37.041992 
	C104.678810,33.067596 106.263000,29.461939 108.258148,24.920929 
	C111.277031,32.083851 113.907936,38.326202 116.700073,44.951126 
	C110.742531,44.951126 105.491730,44.951126 99.609848,44.951126 
	C100.803185,42.188557 101.835114,39.799644 102.980835,37.041992 
z"/>
</svg>